<?xml version="1.0" encoding="utf-8"?>
<!-- Generator: Adobe Illustrator 21.0.0, SVG Export Plug-In . SVG Version: 6.00 Build 0)  -->
<svg version="1.1" id="Layer_1" xmlns="http://www.w3.org/2000/svg" xmlns:xlink="http://www.w3.org/1999/xlink" x="0px" y="0px"
	 viewBox="0 0 436.7 71.9" style="enable-background:new 0 0 436.7 71.9;" xml:space="preserve">
<style type="text/css">
	.st0{fill:#414142;}
	.st1{fill:#3576B8;}
</style>
<g>
	<g>
		<path class="st0" d="M122.5,20.7c-1.5,9.7-5,14.4-12.5,15.7l-0.1,0.3c8.7,1.1,10.6,6.5,9.1,16.2c-2.2,14.6-10.5,19-27.3,19
			c-7.4,0-19.2-0.3-27.1-0.9c-1-0.1-1.3-0.4-1.1-1.3L74,3.7c0.2-1,0.4-1.2,1.5-1.3c8.2-0.7,17.9-1,25.2-1
			C118.1,1.4,124.8,6.3,122.5,20.7 M82,41.7l-2.8,17.9h13.5c7.7,0,11.2-1.8,12.4-8.6c1.1-7.4-2.2-9.2-9.5-9.2H82z M86.5,13.7
			l-2.9,17.9h9.2c10,0,13.9-1.2,15.2-8.7c1.1-7.3-2.2-9.2-10.6-9.2H86.5z"/>
		<path class="st0" d="M157.9,21.7c0.9,0.3,1.3,0.6,1.2,1.8l-1.2,7.4c-0.2,0.9-0.7,1.3-1.8,1.3h-8.4c-4.7,0-6.4,0.7-7,4.6L135.4,70
			c-0.1,1-0.6,1.4-1.5,1.4h-10.7c-0.9,0-1.3-0.4-1.1-1.4l5.8-36.6c1.8-11.3,10-12.7,18.2-12.7C148.8,20.7,154.9,21,157.9,21.7"/>
		<path class="st0" d="M176.5,21.2c0.9,0,1.3,0.4,1.1,1.3L170.2,70c-0.2,1-0.7,1.4-1.6,1.4H158c-0.9,0-1.3-0.4-1.2-1.4l7.5-47.5
			c0.1-0.9,0.6-1.3,1.5-1.3H176.5z M181.3,7.2c-0.7,4.6-3.9,7.3-9,7.3c-4.9,0-7.4-2.7-6.6-7.3c0.6-4.6,3.9-7.2,9-7.2
			C179.6,0,182,2.6,181.3,7.2"/>
		<path class="st0" d="M224.6,45.7l-0.4,2.8c-0.3,1.8-0.9,2.4-3.2,2.4h-28.2c-1.1,8.1,0.8,9.5,8.7,9.5h15.9c0.9,0,1.3,0.4,1.2,1.3
			l-1.2,7.4c-0.2,1-0.7,1.3-1.5,1.4c-4.9,1-11.5,1.3-17.4,1.3c-18.1,0-21.7-5.1-18.5-25.6c3.2-20.5,8.5-25.6,26.6-25.6
			C224.2,20.7,227.7,25.7,224.6,45.7 M194,42.2h17.8c1.3-7.9-0.4-10-7.1-10C197.9,32.2,195.3,34.3,194,42.2"/>
		<path class="st0" d="M266.5,2.4c0.9,0.2,1.3,0.6,1.2,1.7l-1.2,7.4c-0.2,1-0.8,1.4-1.8,1.4h-7.1c-3.5,0-5.1,0.4-5.6,3.5l-0.8,4.8
			h10.9c1,0,1.3,0.4,0.9,1.5l-2.6,7.5c-0.3,0.9-0.8,1.3-1.7,1.3h-9.1L243.6,70c-0.2,1-0.7,1.4-1.6,1.4h-10.6c-0.9,0-1.3-0.4-1.2-1.4
			l6.1-38.4h-5.7c-1.1,0-1.5-0.4-1.3-1.3l1.3-7.6c0.1-0.9,0.6-1.3,1.6-1.3h5.8l1.2-7.1c1.8-11.3,9.7-12.7,17.8-12.7
			C259.6,1.5,263.2,1.8,266.5,2.4"/>
		<path class="st0" d="M317.8,2.8c1.3,0.4,1.9,0.9,1.7,2.4l-1.2,7.2c-0.2,0.9-0.7,1.3-1.6,1.3h-18.3c-12.4,0-15.3,5.4-18.1,22.9
			c-2.9,17.5-1.5,23,10.9,23h18.4c0.9,0,1.3,0.4,1.1,1.3l-1.2,7.3c-0.2,1.4-1,2-2.3,2.3c-4.6,0.9-10,1.3-17.9,1.3
			c-22.9,0-27.5-8.1-23.1-35.3c4.3-27.2,11.5-35.2,34.4-35.2C308.2,1.4,313.6,2,317.8,2.8"/>
		<path class="st0" d="M361.1,36.2l-4.9,31c-0.3,1.4-0.8,2.2-2.4,2.8c-6.5,1.4-14.5,1.9-20.7,1.9c-13.5,0-20.4-1.4-18.2-15.5
			c2.1-12.1,8.7-14.7,20.6-14.7h11.4l0.5-3.2c0.7-4.3-1.6-6.2-7.4-6.2h-16.2c-1,0-1.3-0.4-1.1-1.5l1.2-7.2c0.2-1.1,0.5-1.3,1.4-1.4
			c5.7-1.1,10.9-1.3,16.4-1.3C359.5,20.7,362.7,26.5,361.1,36.2 M335.2,50.2c-4.6,0-6.5,1.5-7.1,5.4c-0.7,4.3,1.1,5.5,6.7,5.5
			c1.9,0,6.4-0.2,9.2-0.9l1.6-10H335.2z"/>
		<path class="st0" d="M436.1,39.7L431.1,70c-0.1,1-0.6,1.4-1.5,1.4H419c-0.9,0-1.3-0.4-1.1-1.4l3.9-24.3c2-12.8,0.7-13.5-6.4-13.5
			c-2.5,0-5.2,0.1-7.4,0.5c0.4,2.4,0.3,5.5-0.4,9.5L403.2,70c-0.2,1-0.5,1.4-1.4,1.4H391c-0.9,0-1.2-0.4-1.1-1.4l4.4-27.4
			c1.4-10-0.1-10.4-6.9-10.4h-6.2l-6,37.8c-0.1,1-0.6,1.4-1.5,1.4h-10.6c-0.9,0-1.3-0.4-1.2-1.4l7.4-46.4c0.2-1,0.5-1.2,1.4-1.3
			c5.1-1.1,12.8-1.5,17.4-1.5c7,0,12.7,1.3,15.6,2.9c5.3-1.9,11.6-3,16.2-3C433.9,20.6,438.5,24.6,436.1,39.7"/>
	</g>
	<g>
		<path class="st1" d="M59.2,21.4H20.7c-2.2,0-4-1.8-4-4s1.8-4,4-4h38.6c2.2,0,4,1.8,4,4S61.4,21.4,59.2,21.4z"/>
		<path class="st1" d="M56.8,40.3H4c-2.2,0-4-1.8-4-4c0-2.2,1.8-4,4-4h52.8c2.2,0,4,1.8,4,4C60.7,38.6,58.9,40.3,56.8,40.3z"/>
		<path class="st1" d="M53.9,59.3H34.5c-2.2,0-4-1.8-4-4c0-2.2,1.8-4,4-4h19.5c2.2,0,4,1.8,4,4C57.9,57.5,56.1,59.3,53.9,59.3z"/>
	</g>
</g>
</svg>
