<svg width="601" height="126" viewBox="0 0 601 126" fill="none" xmlns="http://www.w3.org/2000/svg">
<path fill-rule="evenodd" clip-rule="evenodd" d="M180.2 64.5C179.7 61.4 179 59.2 177.6 57.5C176.2 55.8 174.6 54.8 172.7 54.8C169.9 54.8 168 56.2 166.4 58.7C165 61.3 164.3 65 164.3 70C164.3 74.8 165 78.7 166.6 81.3C168 83.7 170.1 85.2 172.7 85.2C174.8 85.2 176.7 84.2 178.1 82.6C179.5 80.9 180.2 78.7 180.7 75.6L192.2 77C191.7 82.3 189.4 86.6 185.9 89.8C182.1 93.2 177.7 94.6 172.1 94.6C165.8 94.6 160.4 92.4 156.4 87.9C152.4 83.3 150.3 77.5 150.3 70.3C150.3 62.8 152.4 56.8 156.6 52.2C160.6 47.6 166.2 45.5 173 45.5C178.4 45.5 182.6 47.2 186.1 50.3C189.4 53.4 191.5 57.8 192.2 63.3L180.2 64.5Z" fill="#AED5E7"/>
<path d="M209.9 30.3H196.3V93.4H209.9V30.3Z" fill="#AED5E7"/>
<path fill-rule="evenodd" clip-rule="evenodd" d="M237.6 85.2C240.4 85.2 242.8 84 244.2 81.4C245.8 78.8 246.5 75.1 246.5 70.1C246.5 65.3 245.8 61.4 244.2 58.8C242.8 56.2 240.5 55 237.6 55C234.8 55 232.4 56.2 231 58.8C229.4 61.5 228.7 65.3 228.7 70.1C228.7 75.2 229.4 78.8 231 81.4C232.4 84 234.8 85.2 237.6 85.2ZM237.6 45.5C244.6 45.5 250 47.7 254.2 52.2C258.4 56.8 260.5 62.8 260.5 70C260.5 77.5 258.4 83.5 254.2 87.8C250 92.4 244.6 94.5 237.6 94.5C230.6 94.5 225.2 92.3 221 87.8C216.8 83.5 214.7 77.4 214.7 70C214.7 62.8 216.8 56.8 221 52.2C225.1 47.7 230.5 45.5 237.6 45.5Z" fill="#AED5E7"/>
<path fill-rule="evenodd" clip-rule="evenodd" d="M305.5 46.7V93.4H293.3V85.9C291.9 88.8 290 91 287.7 92.4C285.4 93.8 282.8 94.6 279.7 94.6C274.5 94.6 271 93.4 268.5 90.5C266.2 87.6 265 83 265 77V46.7H278.1V76.1C278.1 79 278.6 81.2 279.7 82.6C280.6 84 282.3 84.8 284.4 84.8C286.7 84.8 288.6 83.8 290.3 81.9C291.7 80 292.4 77.6 292.4 74.4V46.7H305.5V46.7Z" fill="#AED5E7"/>
<path fill-rule="evenodd" clip-rule="evenodd" d="M332.2 94.1C331 94.3 329.6 94.6 328.5 94.6C322.9 94.6 318.4 92.4 315.1 88.1C311.8 83.8 310.2 77.7 310.2 70.3C310.2 62.8 311.8 56.8 315.1 52.2C318.4 47.9 322.8 45.5 328.2 45.5C329.6 45.5 331 45.7 332.2 46.2C333.1 46.4 333.8 46.7 334.8 47.2C336.7 48.2 338.5 49.8 340.2 52V30.3H353.3V93.4H340.9V86.2C339.3 89.1 337.6 91 335.5 92.5C334.4 93.2 333.4 93.6 332.2 94.1ZM332.2 55.1C329.6 55.1 327.7 56.3 326.3 59C324.9 61.6 324.2 65.3 324.2 70.1C324.2 74.9 324.9 78.8 326.3 81.2C327.7 83.6 329.6 84.8 332.2 84.8H332.4C334.5 84.8 336.4 83.8 338 82.2C339.4 80.5 340.1 78.1 340.1 75.2V64.4C340.1 61.5 339.4 59.3 338 57.7C336.7 55.8 334.8 55.1 332.2 55.1Z" fill="#AED5E7"/>
<path fill-rule="evenodd" clip-rule="evenodd" d="M366.2 93.4V51.7H358V46.6H366.2V46.4C366.2 40.6 367.1 36.3 369.5 33.6C371.6 30.7 374.9 29.5 379.4 29.5H382.9C384.1 29.7 385 29.7 386.2 30V35.8C385 35.8 384.1 35.6 383.2 35.3H380.9C378.1 35.3 376 36 374.6 37.7C373.7 39.1 373 41.6 373 44.9V45.9V46.6H383.8V51.7H373V93.4H366.2V93.4Z" fill="#0088BB"/>
<path fill-rule="evenodd" clip-rule="evenodd" d="M395.3 53.2C393.2 54.4 392 56.3 391.3 59.2L385 58.2C385.9 53.9 388 50.7 391.3 48.6C397.5 44.3 412 43.9 417.3 49.8C420.1 52.9 421.3 57.5 421.3 63.8C421.3 70.8 420.3 87.4 422.7 93.4H415.9C415 91 414.7 87.1 414.7 84.5C411.7 90.8 405.9 94.6 399 94.6C390.8 94.6 383.5 89.4 383.5 80.4C383.5 75.1 385.8 71 390.3 68.4C395.6 65.7 402.2 64.6 408.2 64.3C410.5 64.2 412.8 64.3 414.6 64.5V61.6C414.6 58 413.7 55.3 411.8 53.7C408.2 50.3 399.3 50.1 395.3 53.2ZM395.8 72.4C392.5 74.1 391.1 76.7 391.1 80.1C391.1 90.8 404.5 90.8 410.6 84C413.4 80.6 414.8 76.8 414.8 72.2V69.8C412.6 69.6 410.5 69.5 408.3 69.6C404.1 69.7 399.1 70.3 395.8 72.4Z" fill="#0088BB"/>
<path fill-rule="evenodd" clip-rule="evenodd" d="M456.1 63.1C455.6 59.5 454.5 56.6 452.6 54.7C450.5 52.5 448.1 51.3 445.6 51.3C441.8 51.3 438.8 53 436.5 56.4C434.4 60 433.2 64.6 433.2 70.1C433.2 75.9 434.4 80.5 436.5 83.8C438.8 87.2 441.7 88.9 445.4 88.9C448.2 88.9 450.6 87.7 452.4 85.8C454.5 83.9 455.7 81 456.4 77.4L462.5 78.6C461.6 83.7 459.7 87.8 456.6 90.6C453.6 93.5 449.8 94.7 445.1 94.7C439.2 94.7 434.6 92.5 431 88.2C427.5 83.6 425.8 77.6 425.8 70.1C425.8 62.6 427.7 56.8 431.2 52.3C434.9 47.7 439.9 45.6 446 45.6C450.5 45.6 454.2 47 457 49.9C459.8 52.8 461.7 56.9 462.4 62.2L456.1 63.1Z" fill="#0088BB"/>
<path fill-rule="evenodd" clip-rule="evenodd" d="M470.6 76.1V51.8H462.6V46.7H470.6V35.6L477.4 34.9V46.7H488.2V51.8H477.4V76.4C477.4 81.4 478.1 85.1 479 86.5C480.2 88 482.3 88.9 485.1 88.9C486 88.9 487 88.7 487.7 88.7C488.4 88.7 489.1 88.5 489.8 88.2V94C488.9 94.2 487.9 94.5 487 94.7H484.2C481.4 94.7 479 94.5 477.2 93.5C475.3 92.5 473.9 91.1 472.5 89.2C471.8 88.2 471.3 87 471.1 85.3C470.8 83.5 470.6 80.6 470.6 76.1Z" fill="#0088BB"/>
<path fill-rule="evenodd" clip-rule="evenodd" d="M510.5 94.6C504.4 94.6 499.5 92.4 495.7 87.9C491.9 83.6 490.1 77.5 490.1 70.1C490.1 62.6 492 56.9 495.7 52.3C499.4 47.7 504.4 45.6 510.5 45.6C516.6 45.6 521.5 47.8 525.3 52.3C529.1 56.9 530.9 62.7 530.9 70.1C530.9 77.6 529 83.6 525.3 87.9C521.5 92.4 516.5 94.6 510.5 94.6ZM510.5 51.3C506.3 51.3 503.2 53 500.9 56.4C498.6 59.8 497.4 64.3 497.4 70.1C497.4 75.9 498.6 80.5 500.9 83.8C503.2 87.2 506.5 88.9 510.5 88.9C514.5 88.9 517.5 87.2 519.9 83.8C522.2 80.4 523.6 75.8 523.6 70.1C523.6 64.3 522.4 59.7 519.9 56.4C517.5 52.9 514.4 51.3 510.5 51.3Z" fill="#0088BB"/>
<path fill-rule="evenodd" clip-rule="evenodd" d="M535.9 93.4V46.7H542.5V57.3C543.9 53.2 545.5 50.3 547.9 48.4C550 46.5 552.6 45.5 555.9 45.5H558H558.2V52.5H557C552.8 52.5 549.3 54.2 546.7 57.3C544.1 60.4 542.7 64.8 542.7 70.1V93.5H535.9V93.4Z" fill="#0088BB"/>
<path fill-rule="evenodd" clip-rule="evenodd" d="M562.2 108.9V102.9C563.4 103.1 564.5 103.4 565.2 103.6H567.3C570.1 103.6 572.2 102.9 573.9 101.2C575.5 99.3 576.7 96.4 577.9 92.1L561.7 45.6H568.5L581.4 83.2L594.3 45.6H600.2L582.4 96.2C580.8 101.3 578.7 104.9 576.5 106.8C574.2 108.7 571.1 109.7 567.4 109.7H564.8C563.8 109.3 563.1 109.1 562.2 108.9Z" fill="#0088BB"/>
<path fill-rule="evenodd" clip-rule="evenodd" d="M57.5 125.9C77 125.9 92.8 111 92.8 93C92.8 75 77 60.3 57.5 60.3C38.2 60.3 22.4 75 22.4 93C22.4 111 38.1 125.9 57.5 125.9Z" fill="#0088BB"/>
<path fill-rule="evenodd" clip-rule="evenodd" d="M99.6 115.5C113.2 115.5 124.4 104.9 124.4 91.8C124.4 78.9 113.2 68.3 99.6 68.3C85.8 68.3 74.8 78.9 74.8 91.8C74.8 104.9 85.8 115.5 99.6 115.5Z" fill="#0088BB"/>
<path fill-rule="evenodd" clip-rule="evenodd" d="M119.1 100.2C130.7 100.2 140.2 91.2 140.2 80.2C140.2 69 130.7 60.2 119.1 60.2C107.7 60.2 98.2 69 98.2 80.2C98.2 91.2 107.6 100.2 119.1 100.2Z" fill="#0088BB"/>
<path fill-rule="evenodd" clip-rule="evenodd" d="M99.6 112.7C111.6 112.7 121.5 103.3 121.5 91.7C121.5 80.3 111.6 70.9 99.6 70.9C87.6 70.9 77.7 80.3 77.7 91.7C77.8 103.3 87.6 112.7 99.6 112.7Z" fill="#AED5E7"/>
<path fill-rule="evenodd" clip-rule="evenodd" d="M119.1 97.3C129.2 97.3 137.2 89.7 137.2 80.3C137.2 70.9 129.1 63.1 119.1 63.1C109.2 63.1 101.2 70.9 101.2 80.3C101.1 89.7 109.2 97.3 119.1 97.3Z" fill="#AED5E7"/>
<path fill-rule="evenodd" clip-rule="evenodd" d="M119.1 93.8C127 93.8 133.3 87.7 133.3 80.3C133.3 72.8 127 66.8 119.1 66.8C111.4 66.8 104.9 72.9 104.9 80.3C104.9 87.7 111.4 93.8 119.1 93.8Z" fill="white"/>
<path fill-rule="evenodd" clip-rule="evenodd" d="M104.6 106.3C112.9 106.3 116.6 101.3 116.6 93.3C116.6 85.5 112.8 77.3 104.6 77.3C96.1 77.3 89.4 84 89.4 91.8C89.4 99.8 96.1 106.3 104.6 106.3Z" fill="#B1D8E4"/>
<path fill-rule="evenodd" clip-rule="evenodd" d="M22.6 100.8C35 100.8 45.1 91.2 45.1 79.2C45.1 67.4 35 57.8 22.6 57.8C10.4 57.8 0.0999756 67.4 0.0999756 79.2C0.199976 91.2 10.4 100.8 22.6 100.8Z" fill="#0088BB"/>
<path fill-rule="evenodd" clip-rule="evenodd" d="M22.6 98.2C33.4 98.2 42.5 89.6 42.5 79.2C42.5 68.8 33.4 60.4 22.6 60.4C11.8 60.4 2.89996 68.8 2.89996 79.2C2.89996 89.6 11.8 98.2 22.6 98.2Z" fill="#AED5E7"/>
<path fill-rule="evenodd" clip-rule="evenodd" d="M57.9 122.9C75.6 122.9 90.2 109.6 90.2 93.3C90.2 77 75.6 63.7 57.9 63.7C40 63.7 25.4 77 25.4 93.3C25.3 109.6 39.9 122.9 57.9 122.9Z" fill="#AED5E7"/>
<path fill-rule="evenodd" clip-rule="evenodd" d="M22.6 94.5C31.3 94.5 38.6 87.6 38.6 79.2C38.6 71 31.3 64.1 22.6 64.1C13.7 64.1 6.79999 71 6.79999 79.2C6.79999 87.7 13.8 94.5 22.6 94.5Z" fill="white"/>
<path fill-rule="evenodd" clip-rule="evenodd" d="M59.2 116.1C75.6 116.1 88.8 104.1 88.8 89.6C88.8 74.9 75.6 63 59.2 63C43 63 29.8 75 29.8 89.6C29.9 104.1 43.1 116.1 59.2 116.1Z" fill="#B1D8E4"/>
<path fill-rule="evenodd" clip-rule="evenodd" d="M99.6 108.6C109.3 108.6 117.1 101 117.1 91.7C117.1 82.5 109.2 75.1 99.6 75.1C89.9 75.1 82.1 82.5 82.1 91.7C82.1 101 90 108.6 99.6 108.6Z" fill="white"/>
<path fill-rule="evenodd" clip-rule="evenodd" d="M57.7 119.2C73.5 119.2 86.3 107.6 86.3 93.3C86.3 79 73.5 67.4 57.7 67.4C41.9 67.4 29.1 79 29.1 93.3C29.1 107.6 41.9 119.2 57.7 119.2Z" fill="white"/>
<path fill-rule="evenodd" clip-rule="evenodd" d="M39.8 114C33.3 108.5 30.1 104.4 29 95.8C28.4 88.9 36.4 78.7 44.3 77L77.8 92V92.8C63.3 91.7 45.7 100.6 39.8 114Z" fill="#AED5E7"/>
<path fill-rule="evenodd" clip-rule="evenodd" d="M40.7 4.89999C43.7 2.19999 46.7999 1.80001 50.1999 3.70001L54.3 40L44.5999 41L40.7 4.89999Z" fill="#0088BB"/>
<path fill-rule="evenodd" clip-rule="evenodd" d="M58 2.9C61.2 0.399997 64.3 0.200003 67.7 2.5L68.7 38.9L59.2 39.1L58 2.9Z" fill="#0088BB"/>
<path fill-rule="evenodd" clip-rule="evenodd" d="M77.8 88.9L79.5 50.7L112.5 38.8L97.5 27.4L93.3 28.4L89.6 23.3L79.7 25.1L76.8 21.5L47 24.9L47.6 37.4L39.3 34.3L45.8 75L77.8 88.9Z" fill="#0088BB"/>
<path fill-rule="evenodd" clip-rule="evenodd" d="M77.8 88.9L79.5 50.7L112.5 38.8L105.4 75.8L77.8 88.9Z" fill="white"/>
<path fill-rule="evenodd" clip-rule="evenodd" d="M69.7 35.2L78.4 48.8L109.1 38.4L97.1 29.4L69.7 35.2Z" fill="#AED5E7"/>
<path fill-rule="evenodd" clip-rule="evenodd" d="M83.4 53.9L91.9 51.3L89.3 79.5L87.5 80.1L90.1 53.5L83.4 55.8V53.9Z" fill="#0088BB"/>
<path fill-rule="evenodd" clip-rule="evenodd" d="M73.4 56.4L69.3 54.9L69.9 68.8L70.7 69.1L70.1 56L73.4 57.4V56.4Z" fill="white"/>
<path fill-rule="evenodd" clip-rule="evenodd" d="M65.7 53.7L61.8 52.3L62.8 66.4L63.6 66.6L62.6 53.5L65.7 54.6V53.7Z" fill="white"/>
<path fill-rule="evenodd" clip-rule="evenodd" d="M58.2 51.1L54.1 49.9L55.7 63.7L56.5 64.1L54.9 50.9L58.2 51.9V51.1Z" fill="white"/>
<path fill-rule="evenodd" clip-rule="evenodd" d="M50.6 48.4L46.4 47.4L48.6 61.1L49.4 61.3L47.2 48.4L50.8 49.4L50.6 48.4Z" fill="white"/>
<path fill-rule="evenodd" clip-rule="evenodd" d="M96.5 49.6L104.8 46.8L100.2 74.4L98.5 75L103.2 49.2L96.1 51.3L96.5 49.6Z" fill="#0088BB"/>
<path fill-rule="evenodd" clip-rule="evenodd" d="M48 26.8L58 41.9V28.6L77.2 25.3L75.4 23.7L48 26.8Z" fill="#AED5E7"/>
<path fill-rule="evenodd" clip-rule="evenodd" d="M59.8 30.7L68.3 46L67.7 33.7L91.2 28.8L88.6 25.5L59.8 30.7Z" fill="#AED5E7"/>
<path fill-rule="evenodd" clip-rule="evenodd" d="M63 3.1C64 2.5 65.2 3.09999 66.3 3.49999L66.5 22.7L63.3 23.1L63 3.1Z" fill="white"/>
<path fill-rule="evenodd" clip-rule="evenodd" d="M44.8 4.9C45.8 3.9 47.6 4.49999 48.5 5.29999L50.7 24.5L47.5 24.7L44.8 4.9Z" fill="white"/>
<path fill-rule="evenodd" clip-rule="evenodd" d="M105.5 75.7L76.8 91.5L77.8 92.8L105.6 76.1L105.5 75.7Z" fill="#AED5E7"/>
<path d="M116.7 95.7C119 83.5 109.4 78.3 109.4 78.3C109.4 78.3 121.3 81.8 121.1 93.7C121.1 94.5 121 95.9 120.8 97.3L116.7 95.7Z" fill="#AED5E7"/>
</svg>
