<svg xmlns="http://www.w3.org/2000/svg" width="276" height="54" viewBox="0 0 276 54">
    <defs>
        <linearGradient id="prefix__a" x1="30.401%" x2="43.48%" y1="32.6%" y2="64.172%">
            <stop offset="0%" stop-color="#2AE6C8"/>
            <stop offset="100%" stop-color="#2D87FF"/>
        </linearGradient>
    </defs>
    <g fill="none" fill-rule="evenodd">
        <path fill="url(#prefix__a)" d="M6.666 40l.168.008c.447.045.875.268 1.17.656l.27.346c4.435 5.606 11.026 8.812 18.152 8.812l.573-.007c1.338-.033 2.671-.181 3.971-.441l.144-.023c.862-.096 1.667.487 1.839 1.36l.022.144c.096.868-.483 1.68-1.348 1.853l-.64.12c-1.5.261-3.03.393-4.561.393l-.547-.005c-4.004-.08-7.837-1.037-11.403-2.848l-.482-.251c-3.357-1.794-6.344-4.338-8.664-7.382l-.093-.134c-.456-.734-.292-1.711.403-2.25.306-.237.667-.351 1.026-.351zm64.578-9.164l.145.007c.86.074 1.535.802 1.535 1.689l-.006.146c-.073.868-.795 1.55-1.674 1.55H53.698l-.177.003c-1.45.064-2.125.939-3.209 3.074l-.203.444c-2.689 5.744-7.301 10.33-13.051 12.956l-.17.067c-.172.057-.348.085-.522.085l-.147-.007c-.585-.052-1.125-.412-1.385-.99l-.056-.144c-.283-.82.096-1.735.894-2.1l.438-.205c4.056-1.956 7.436-5.042 9.764-8.875l.007-.014.297-.517c.29-.525.559-1.07.82-1.6l.153-.308.154-.308v-.002l.039-.081.042-.079.198-.383c.467-.891.985-1.754 1.648-2.473l.205-.214c1.108-1.104 2.432-1.667 4.032-1.715l.05-.004.05-.002h17.675zM11.005 13.74l.172.009c.287.029.57.132.82.313l.12.095c.65.567.77 1.545.252 2.255l-.25.352c-1.959 2.834-2.992 6.148-2.992 9.613l.003.322c.172 9.208 7.738 16.646 17.012 16.646l.358-.004c7.152-.149 13.457-4.737 15.76-11.512l.053-.135c.347-.793 1.251-1.201 2.088-.918l.135.052c.795.347 1.204 1.248.92 2.082l-.128.368c-2.91 8.05-10.57 13.432-19.186 13.432l-.347-.002c-11.084-.186-20.043-9.235-20.043-20.33l.005-.463c.092-4.157 1.43-8.118 3.882-11.482.33-.453.844-.693 1.366-.693zm15.225-1.144l.313.004c7.584.166 13.703 6.388 13.703 14.012l-.004.312c-.167 7.584-6.388 13.703-14.012 13.703l-.284-.003-.285-.008-.144-.012c-.854-.108-1.498-.853-1.463-1.728l.012-.145c.107-.853.853-1.498 1.728-1.462l.218.006.218.002.284-.003c5.75-.151 10.382-4.876 10.382-10.662l-.004-.284c-.15-5.75-4.875-10.382-10.662-10.382l-.283.004c-5.75.15-10.382 4.875-10.382 10.662l.004.318c.113 3.814 2.249 7.276 5.63 9.089l.131.078c.716.471.967 1.42.554 2.19l-.078.13c-.471.716-1.42.967-2.19.554l-.301-.166c-4.389-2.492-7.1-7.133-7.1-12.193 0-7.728 6.287-14.016 14.015-14.016zM26.45 0c7.05 0 13.682 2.758 18.674 7.767l.109.12c.545.663.51 1.646-.105 2.268l-.12.11c-.658.548-1.635.513-2.253-.106l-.33-.325c-4.319-4.168-9.973-6.457-15.974-6.457l-.381.003C13.51 3.585 3.355 13.933 3.355 26.622l.007.564c.074 3.192.78 6.27 2.102 9.155l.058.143c.288.813-.084 1.728-.879 2.097l-.138.057c-.185.067-.375.099-.563.099l-.146-.007c-.58-.05-1.117-.405-1.379-.975l-.234-.527C.734 33.878 0 30.313 0 26.622l.004-.484c.122-6.93 2.861-13.427 7.743-18.34l.336-.332C13.039 2.647 19.543 0 26.45 0zm-.22 18.3l.362.008c.841.039 1.664.212 2.45.517l.139.061c.765.381 1.134 1.304.826 2.135l-.056.135c-.37.79-1.275 1.17-2.089.854l-.262-.093c-.441-.14-.9-.211-1.37-.211l-.21.005c-2.442.113-4.395 2.182-4.395 4.71l.005.215c.11 2.5 2.132 4.5 4.6 4.5l.21-.005c2.443-.114 4.395-2.183 4.395-4.71l-.007-.273c-.02-.363-.08-.72-.18-1.066l-.035-.143c-.172-.857.324-1.72 1.159-1.973l.139-.035c.837-.176 1.68.332 1.927 1.186l.099.375c.15.63.225 1.276.225 1.929l-.003.252c-.131 4.362-3.637 7.869-7.929 7.869l-.246-.004c-4.26-.134-7.686-3.724-7.686-8.117 0-4.478 3.559-8.121 7.932-8.121zm0 6.482l.15.006c.94.076 1.68.863 1.68 1.823l-.007.15c-.076.94-.863 1.679-1.823 1.679l-.15-.006c-.94-.077-1.679-.864-1.679-1.823 0-1.01.82-1.83 1.83-1.83zm72.061-.025l.145.006c.858.073 1.532.787 1.532 1.658l-.006.143c-.073.852-.793 1.52-1.67 1.52H44.326l-.144-.006c-.86-.073-1.533-.787-1.533-1.657l.006-.144c.073-.852.794-1.52 1.671-1.52h53.964zM26.25 6.132l.384.004c8.577.162 16.122 5.73 18.85 13.96l.04.14c.203.845-.266 1.721-1.099 2.002l-.177.05c-.119.025-.238.038-.355.038l-.14-.006c-.648-.055-1.233-.49-1.452-1.15l-.117-.341c-2.405-6.78-8.764-11.31-15.934-11.31l-.43.004c-3.578.09-6.96 1.286-9.81 3.474l-.126.088c-.728.46-1.696.293-2.227-.41l-.091-.134c-.451-.733-.284-1.705.41-2.238 3.553-2.729 7.797-4.17 12.274-4.17zm21.157 5.658l.151.007c.551.05 1.067.368 1.343.892l.297.583c.192.39.376.78.555 1.163l.135.285c1.285 2.709 2.085 3.9 3.883 3.9h41.84l.146.007c.863.073 1.54.794 1.54 1.673l-.006.145c-.074.86-.798 1.534-1.68 1.534H53.689l-.043-.002-.042-.003-.287-.011c-3.86-.237-5.384-3.48-6.616-6.106l-.261-.554c-.172-.362-.343-.712-.523-1.054l-.065-.138c-.33-.794-.004-1.722.774-2.128.25-.131.518-.193.782-.193z"/>
        <path fill="#333" d="M240.734 30.295l2.818-2.829 6.598 7.568h2.88l-7.828-9.369 7.36-7.665h-2.806l-9.356 9.515V18h-2.461v14.639l2.795-2.344zm-121.758-.181l2.637-2.648 6.598 7.568h2.881l-7.829-9.369L130.624 18h-2.806l-9.356 9.515V18H116v14.608l2.976-2.494zm154.267-6.176c0-2.434-1.65-3.82-4.801-3.82h-4.186v7.665h4.186c3.151 0 4.8-1.412 4.8-3.845zm.074 11.096l-3.718-5.232c-.345.025-.714.05-1.083.05h-4.26v5.182h-2.462V18h6.722c4.48 0 7.189 2.239 7.189 5.938 0 2.628-1.379 4.526-3.792 5.378L276 35.034h-2.683zm-49.435-6.205l-3.718-8.347-3.718 8.347h7.436zm.861 1.947h-9.158l-1.896 4.258h-2.536L218.958 18h2.437l7.829 17.034h-2.585l-1.896-4.258zm-24.668 4.258l-.025-12.41-6.228 10.342h-1.133l-6.229-10.27v12.338h-2.363V18h2.018l7.19 11.972L200.394 18h2.019l.025 17.034h-2.364zm-31.168-5.889v5.89h-2.438v-5.938L159.625 18h2.634l5.515 8.98 5.54-8.98h2.437l-6.844 11.145zm-16.544 3.772v2.117h-12.507V18h12.162v2.117h-9.7v5.232h8.641v2.069h-8.641v5.5h10.045z"/>
    </g>
</svg>
