<?xml version="1.0" encoding="utf-8"?>
<!-- Generator: Adobe Illustrator 16.0.4, SVG Export Plug-In . SVG Version: 6.00 Build 0)  -->
<!DOCTYPE svg PUBLIC "-//W3C//DTD SVG 1.1//EN" "http://www.w3.org/Graphics/SVG/1.1/DTD/svg11.dtd">
<svg version="1.1" id="final" xmlns="http://www.w3.org/2000/svg" xmlns:xlink="http://www.w3.org/1999/xlink" x="0px" y="0px"
	 width="1137.059px" height="686.035px" viewBox="0 0 1137.059 686.035" enable-background="new 0 0 1137.059 686.035"
	 xml:space="preserve">
<g>
	<path fill="#231F20" d="M332.147,610.977c-43.604,0-85.326-9.882-124.006-29.372c-36.872-18.578-69.695-45.75-94.92-78.578
		c-5.889-7.664-4.45-18.65,3.213-24.539c7.665-5.889,18.651-4.45,24.54,3.213c46.039,59.914,115.719,94.276,191.174,94.276
		c15.875,0,31.745-1.552,47.166-4.611c9.485-1.883,18.69,4.279,20.572,13.759c1.881,9.48-4.279,18.69-13.759,20.571
		C368.466,609.2,350.305,610.977,332.147,610.977L332.147,610.977z"/>
</g>
<g>
	<path fill="#231F20" d="M97.327,460.602c-6.619,0.001-12.951-3.772-15.904-10.178c-16.734-36.301-25.219-75.126-25.219-115.395
		c0-73.707,28.704-143.001,80.823-195.121c52.119-52.119,121.415-80.822,195.121-80.822c73.539,0,142.722,28.591,194.805,80.508
		c6.845,6.823,6.863,17.903,0.04,24.749c-6.823,6.846-17.904,6.863-24.749,0.04c-45.477-45.331-105.885-70.296-170.096-70.296
		c-132.856,0-240.943,108.087-240.943,240.943c0,35.174,7.403,69.069,22.004,100.743c4.046,8.777,0.211,19.173-8.566,23.219
		C102.27,460.084,99.778,460.602,97.327,460.602L97.327,460.602z"/>
</g>
<g>
</g>
<circle fill="#231F20" cx="332.147" cy="335.031" r="19.24"/>
<g>
	<path fill="#231F20" d="M332.147,418.477c-46.012,0-83.445-37.434-83.445-83.446c0-46.012,37.433-83.445,83.445-83.445
		c10.176,0,20.125,1.816,29.572,5.397c9.037,3.426,13.586,13.529,10.161,22.567c-3.426,9.037-13.529,13.585-22.567,10.161
		c-5.469-2.073-11.245-3.125-17.167-3.125c-26.711,0-48.444,21.732-48.444,48.445c0,26.713,21.732,48.446,48.445,48.446
		s48.445-21.733,48.445-48.446c0-4.689-0.664-9.315-1.975-13.753c-2.739-9.269,2.556-19.003,11.824-21.741
		c9.271-2.74,19.003,2.556,21.741,11.824c2.263,7.66,3.41,15.624,3.41,23.671C415.592,381.043,378.159,418.477,332.147,418.477
		L332.147,418.477z"/>
</g>
<g>
	<path fill="#231F20" d="M332.147,481.477c-1.975,0-3.976-0.04-5.949-0.118c-9.657-0.385-17.175-8.524-16.791-18.183
		c0.384-9.657,8.528-17.188,18.182-16.79c1.512,0.061,3.045,0.091,4.557,0.091c61.451,0,111.444-49.995,111.444-111.447
		c0-61.451-49.994-111.444-111.444-111.444S220.703,273.579,220.703,335.03c0,41.162,22.56,78.827,58.875,98.297
		c8.518,4.566,11.721,15.174,7.154,23.692c-4.566,8.519-15.173,11.719-23.692,7.153c-47.704-25.576-77.337-75.061-77.337-129.143
		c0-80.75,65.695-146.444,146.444-146.444S478.592,254.28,478.592,335.03C478.592,415.781,412.897,481.477,332.147,481.477
		L332.147,481.477z"/>
</g>
<g>
	<path fill="#231F20" d="M332.147,546.477c-116.59,0-211.444-94.854-211.444-211.447c0-44.979,13.938-87.929,40.309-124.205
		c5.684-7.817,16.628-9.548,24.445-3.865s9.548,16.627,3.865,24.445c-21.994,30.256-33.62,66.089-33.62,103.625
		c0,97.293,79.152,176.447,176.444,176.447c75.686,0,142.855-48.124,167.142-119.751c3.104-9.153,13.039-14.059,22.193-10.954
		c9.153,3.104,14.057,13.04,10.954,22.193C503.33,488.804,422.84,546.477,332.147,546.477L332.147,546.477z"/>
</g>
<g>
	<path fill="#231F20" d="M516.115,290.974c-7.32,0-14.144-4.629-16.594-11.954c-24.095-72.036-91.357-120.435-167.374-120.435
		c-38.951,0-75.873,12.436-106.774,35.961c-7.691,5.855-18.671,4.365-24.524-3.323c-5.854-7.69-4.367-18.67,3.323-24.524
		c37.047-28.205,81.301-43.113,127.976-43.114c91.088,0,171.689,58.002,200.566,144.332c3.066,9.166-1.879,19.082-11.045,22.147
		C519.827,290.681,517.955,290.974,516.115,290.974L516.115,290.974z"/>
</g>
<g>
	<path fill="#231F20" d="M1083.375,352.531h-563c-9.665,0-17.5-7.835-17.5-17.5s7.835-17.5,17.5-17.5h563
		c9.665,0,17.5,7.835,17.5,17.5S1093.04,352.531,1083.375,352.531L1083.375,352.531z"/>
</g>
<path fill="#231F20" d="M1052.272,252.31h-434.5c-19.312,0-27.545-13.295-41.727-43.63c-2.792-5.972-5.679-12.146-8.849-18.19
	c-4.49-8.558-15.068-11.855-23.627-7.366c-8.559,4.49-11.856,15.068-7.366,23.627c2.798,5.333,5.391,10.879,8.136,16.751
	c13.109,28.041,29.399,62.821,71.687,63.764c0.294,0.015,0.585,0.044,0.883,0.044h435.363c9.665,0,17.5-7.835,17.5-17.5
	S1061.938,252.31,1052.272,252.31z"/>
<path fill="#231F20" d="M801.875,381.477H617.772c-0.352,0-0.694,0.032-1.04,0.053c-17.71,0.536-32.172,7.054-44.131,19.915
	c-7.889,8.483-13.812,18.9-19.227,29.479c-0.306,0.531-0.589,1.081-0.843,1.654c-0.002,0.005-0.004,0.01-0.006,0.015
	c-1.075,2.121-2.134,4.245-3.186,6.357c-3.637,7.307-7.398,14.862-11.64,21.858c-0.029,0.048-0.05,0.098-0.079,0.146
	c-25.114,40.975-61.977,73.678-106.255,93.715c-8.805,3.984-12.713,14.353-8.729,23.158c2.925,6.465,9.291,10.289,15.954,10.289
	c2.412,0,4.864-0.501,7.205-1.561c61.425-27.795,110.389-76.88,138.055-138.311c11.744-22.922,18.882-31.768,35.271-31.768h182.754
	c9.665,0,17.5-7.835,17.5-17.5S811.54,381.477,801.875,381.477z"/>
</svg>
